<svg width="140" height="33" viewBox="0 0 140 33" fill="none" xmlns="http://www.w3.org/2000/svg">
    <defs>
        <linearGradient id="paint0_linear" x1="17.7487" y1="-7.96451e-07" x2="17.7487" y2="32.8322" gradientUnits="userSpaceOnUse">
            <stop stop-color="#23D4AE"/>
            <stop offset="1" stop-color="#5D5FEF"/>
        </linearGradient>
    </defs>
    <path d="M35.4974 7.81718C35.4974 9.08982 35.1932 10.2905 34.6537 11.3521C34.6537 11.3537 34.653 11.3552 34.6514 11.3568L34.2425 12.0658C34.2425 12.0666 34.2425 12.0674 34.2409 12.0682L24.666 28.6625C24.6652 28.6633 24.6652 28.6648 24.6636 28.6656L24.3767 29.1628C24.3744 29.1675 24.3712 29.1722 24.3681 29.1769C22.9842 31.3735 20.5369 32.8322 17.7487 32.8322C14.9605 32.8322 12.5132 31.3735 11.1293 29.1769C11.1262 29.1722 11.123 29.1675 11.1207 29.1628L10.8337 28.6656C10.8322 28.6648 10.8322 28.6633 10.8314 28.6625L1.25492 12.0658L0.845995 11.3568C0.304934 10.2945 4.07967e-07 9.09139 3.50788e-07 7.81719C1.57048e-07 3.49975 3.50048 -1.5708e-07 7.81881 -3.50859e-07L27.6786 -1.24204e-06C31.9969 -1.43582e-06 35.4974 3.49975 35.4974 7.81718Z" fill="url(#paint0_linear)"/>
<path fill-rule="evenodd" clip-rule="evenodd" d="M21.67 7.146H26.2938C27.0476 7.146 27.6594 7.75778 27.6567 8.51157C27.6567 8.74643 27.5993 8.96494 27.4955 9.15613L27.4518 9.23257L27.0804 9.87714L26.272 11.2782L23.2049 16.5957L18.9634 23.9398L18.8542 24.131C18.6084 24.486 18.196 24.7209 17.729 24.7209C17.2619 24.7209 16.8495 24.4887 16.6037 24.131L16.4945 23.9398L14.2358 20.0233L14.2304 20.0151C14.1184 19.8157 14.0529 19.5836 14.0529 19.3378C14.0529 19.0974 14.1157 18.8735 14.2249 18.6768L14.2495 18.6359L14.2522 18.6304L14.8067 17.6691L17.6853 12.6848L17.7017 12.6574L17.7044 12.6547L17.7099 12.6438L19.3076 9.87714L19.313 9.86893L20.4683 7.867L20.482 7.84244L20.5038 7.8042L20.512 7.78781C20.5612 7.70587 20.6212 7.63214 20.6868 7.56387C20.9353 7.30713 21.2849 7.146 21.67 7.146ZM16.0546 11.6878L16.0273 11.7343L13.6048 15.9156L13.5092 16.0795C13.3371 16.3198 13.0531 16.4782 12.7336 16.4782C12.4058 16.4782 12.1163 16.3144 11.9443 16.0631V16.0604L11.9279 16.0303C11.9279 16.029 11.9272 16.0283 11.9265 16.0276C11.9258 16.0269 11.9251 16.0262 11.9251 16.0249L11.8896 15.9648V15.962L11.876 15.9402L9.22951 11.3519C9.22678 11.3519 9.22678 11.3492 9.22678 11.3492C9.22678 11.3464 9.22405 11.3437 9.22405 11.3437C9.22405 11.3423 9.22337 11.3417 9.22269 11.341C9.22201 11.3403 9.22132 11.3396 9.22132 11.3382L9.18855 11.2781V11.2754C9.18855 11.2754 9.18581 11.2727 9.18581 11.27V11.2672C9.12027 11.1389 9.08203 10.9886 9.08203 10.833C9.08203 10.3059 9.51082 9.87708 10.0379 9.87708H15.4729C15.9863 9.89346 16.3988 10.3141 16.3988 10.833C16.3988 10.9969 16.3578 11.1498 16.2868 11.2836V11.2863L16.284 11.2918L16.2704 11.3137L16.254 11.3437L16.2513 11.3464L16.2485 11.3519L16.0574 11.6851L16.0546 11.6878Z" fill="white"/>
<path d="M44.7871 9.66332H48.9882L53.5504 20.1724L58.1453 9.66332H62.248L55.0602 25.2797H51.975L44.7871 9.66332Z" fill="#142348"/>
<path d="M63.856 11.6931C65.4752 10.1217 67.4773 9.33594 69.8623 9.33594C72.2692 9.33594 74.2822 10.1217 75.9014 11.6931C77.5424 13.2646 78.363 15.1962 78.363 17.4879C78.363 19.7577 77.5424 21.6784 75.9014 23.2499C74.2822 24.8213 72.2692 25.607 69.8623 25.607C67.4773 25.607 65.4752 24.8213 63.856 23.2499C62.2368 21.6784 61.4272 19.7577 61.4272 17.4879C61.4272 15.1962 62.2368 13.2646 63.856 11.6931ZM65.3986 17.4879C65.3986 18.7974 65.8143 19.8887 66.6458 20.7617C67.4991 21.6348 68.5713 22.0713 69.8623 22.0713C71.1751 22.0713 72.2582 21.6348 73.1116 20.7617C73.9649 19.8887 74.3916 18.7974 74.3916 17.4879C74.3916 16.1565 73.9649 15.0543 73.1116 14.1813C72.2582 13.3082 71.1751 12.8717 69.8623 12.8717C68.5713 12.8717 67.4991 13.3082 66.6458 14.1813C65.8143 15.0543 65.3986 16.1565 65.3986 17.4879Z" fill="#142348"/>
<path d="M84.0854 9.66332V11.2675C85.2451 9.97979 86.8205 9.33594 88.8117 9.33594C91.131 9.33594 92.8268 10.2308 93.8989 12.0205C95.1461 10.2308 96.9951 9.33594 99.4457 9.33594C101.306 9.33594 102.783 9.93614 103.877 11.1366C104.971 12.3152 105.518 13.9412 105.518 16.0146V25.2797H101.645V16.5712C101.645 15.3489 101.36 14.4213 100.791 13.7884C100.222 13.1554 99.4348 12.839 98.4283 12.839C97.3561 12.839 96.4918 13.1991 95.8354 13.9193C95.2009 14.6178 94.8836 15.6872 94.8836 17.1277V25.2797H90.9779V16.5712C90.9779 15.3489 90.6934 14.4213 90.1245 13.7884C89.5775 13.1554 88.8007 12.839 87.7942 12.839C86.722 12.839 85.8577 13.1991 85.2013 13.9193C84.5668 14.6178 84.2495 15.6872 84.2495 17.1277V25.2797H80.3438V9.66332H84.0854Z" fill="#142348"/>
<path d="M108.905 20.5653C110.327 21.7657 111.935 22.3659 113.73 22.3659C114.517 22.3659 115.13 22.2241 115.568 21.9403C116.005 21.6566 116.224 21.2746 116.224 20.7945C116.224 20.4016 116.071 20.096 115.765 19.8778C115.458 19.6377 114.922 19.4304 114.156 19.2557L112.154 18.7974C110.754 18.4918 109.638 17.9571 108.806 17.1932C107.997 16.4075 107.592 15.4035 107.592 14.1813C107.592 12.7626 108.128 11.6058 109.2 10.711C110.272 9.79428 111.662 9.33594 113.369 9.33594C115.754 9.33594 117.789 9.96888 119.473 11.2348L117.865 14.0176C116.618 13.0354 115.108 12.5443 113.336 12.5443C112.679 12.5443 112.165 12.6753 111.793 12.9372C111.443 13.1773 111.268 13.5047 111.268 13.9193C111.268 14.3122 111.432 14.6178 111.76 14.836C112.089 15.0543 112.647 15.2616 113.434 15.4581L115.272 15.8837C118.357 16.5821 119.9 18.1317 119.9 20.5326C119.9 22.0604 119.331 23.2935 118.193 24.232C117.056 25.1487 115.535 25.607 113.631 25.607C112.406 25.607 111.17 25.3779 109.922 24.9195C108.697 24.4612 107.723 23.9046 107.001 23.2499L108.905 20.5653Z" fill="#142348"/>
<path d="M121.566 25.2797V9.66332H125.472V25.2797H121.566ZM121.14 4.9817C121.14 4.32692 121.37 3.77036 121.829 3.31202C122.289 2.85368 122.857 2.62451 123.536 2.62451C124.214 2.62451 124.783 2.85368 125.242 3.31202C125.724 3.77036 125.965 4.32692 125.965 4.9817C125.965 5.63647 125.735 6.19302 125.275 6.65137C124.794 7.10971 124.214 7.33888 123.536 7.33888C122.857 7.33888 122.289 7.10971 121.829 6.65137C121.37 6.19302 121.14 5.63647 121.14 4.9817Z" fill="#142348"/>
<path d="M129.005 20.5653C130.428 21.7657 132.036 22.3659 133.83 22.3659C134.618 22.3659 135.23 22.2241 135.668 21.9403C136.106 21.6566 136.324 21.2746 136.324 20.7945C136.324 20.4016 136.171 20.096 135.865 19.8778C135.559 19.6377 135.023 19.4304 134.257 19.2557L132.255 18.7974C130.854 18.4918 129.738 17.9571 128.907 17.1932C128.097 16.4075 127.692 15.4035 127.692 14.1813C127.692 12.7626 128.229 11.6058 129.301 10.711C130.373 9.79428 131.762 9.33594 133.469 9.33594C135.854 9.33594 137.889 9.96888 139.574 11.2348L137.966 14.0176C136.718 13.0354 135.209 12.5443 133.436 12.5443C132.78 12.5443 132.266 12.6753 131.894 12.9372C131.544 13.1773 131.368 13.5047 131.368 13.9193C131.368 14.3122 131.533 14.6178 131.861 14.836C132.189 15.0543 132.747 15.2616 133.535 15.4581L135.373 15.8837C138.458 16.5821 140 18.1317 140 20.5326C140 22.0604 139.432 23.2935 138.294 24.232C137.156 25.1487 135.635 25.607 133.732 25.607C132.506 25.607 131.27 25.3779 130.023 24.9195C128.797 24.4612 127.824 23.9046 127.102 23.2499L129.005 20.5653Z" fill="#142348"/>
</svg>
