<svg version="1.1" id="Layer_1" xmlns="http://www.w3.org/2000/svg" xmlns:xlink="http://www.w3.org/1999/xlink" x="0px" y="0px"
	 viewBox="0 0 197.89 197.89" style="enable-background:new 0 0 197.89 197.89;" xml:space="preserve">
<style type="text/css">
	.st0{fill:url(#SVGID_1_);}
	.st1{fill-rule:evenodd;clip-rule:evenodd;fill:#FFFFFF;}
</style>
		<defs>
			<linearGradient id="SVGID_1_" gradientUnits="userSpaceOnUse" x1="-6735.0537" y1="-2126.0535" x2="-6735.0537" y2="-2296.0535" gradientTransform="matrix(1 0 0 -1 6834 -2112.1072)">
		<stop  offset="0" style="stop-color:#23D4AE"/>
				<stop  offset="1" style="stop-color:#5D5FEF"/>
	</linearGradient>
		</defs>
	<path class="st0" d="M190.85,54.42c0,6.59-1.57,12.81-4.37,18.3c0,0.01,0,0.02-0.01,0.02l-2.12,3.67c0,0,0,0.01-0.01,0.01
		l-49.58,85.92c0,0,0,0.01-0.01,0.02l-1.49,2.57c-0.01,0.03-0.03,0.05-0.04,0.07c-7.17,11.37-19.84,18.93-34.27,18.93
		c-14.44,0-27.11-7.55-34.28-18.93c-0.02-0.02-0.03-0.05-0.04-0.07l-1.49-2.57c-0.01,0-0.01-0.01-0.01-0.02L13.54,76.42l-2.12-3.67
		c-2.8-5.5-4.38-11.73-4.38-18.33c0-22.36,18.12-40.48,40.48-40.48h102.83C172.72,13.95,190.85,32.07,190.85,54.42z"/>
	<path class="st1" d="M119.25,50.95h23.94c3.9,0,7.07,3.17,7.06,7.07c0,1.22-0.3,2.35-0.83,3.34l-0.23,0.4l-1.92,3.34l-4.19,7.26
		L127.2,99.88l-21.96,38.03l-0.57,0.99c-1.27,1.84-3.41,3.05-5.83,3.05c-2.42,0-4.55-1.2-5.83-3.05l-0.57-0.99l-11.7-20.28
		l-0.03-0.04c-0.58-1.03-0.92-2.23-0.92-3.51c0-1.24,0.33-2.4,0.89-3.42l0.13-0.21l0.01-0.03l2.87-4.98l14.91-25.81l0.08-0.14
		l0.02-0.01l0.03-0.06l8.27-14.33l0.03-0.04l5.98-10.37l0.07-0.13l0.11-0.2l0.04-0.08c0.26-0.42,0.57-0.81,0.9-1.16
		C115.45,51.78,117.26,50.95,119.25,50.95z M90.18,74.46l-0.14,0.24L77.49,96.35L77,97.2c-0.89,1.24-2.36,2.06-4.02,2.06
		c-1.7,0-3.2-0.85-4.09-2.15V97.1l-0.08-0.16c0-0.01,0-0.01-0.01-0.01c0,0-0.01-0.01-0.01-0.01l-0.18-0.31V96.6l-0.07-0.11
		l-13.7-23.76c-0.02,0-0.02-0.01-0.02-0.01c0-0.01-0.01-0.03-0.01-0.03c0-0.01,0-0.01-0.01-0.01c0,0-0.01-0.01-0.01-0.01l-0.17-0.31
		v-0.01c0,0-0.01-0.01-0.01-0.03v-0.02c-0.34-0.66-0.54-1.44-0.54-2.25c0-2.73,2.22-4.95,4.95-4.95h28.14
		c2.66,0.09,4.79,2.26,4.79,4.95c0,0.85-0.21,1.64-0.58,2.33v0.01l-0.01,0.03l-0.07,0.11l-0.09,0.15l-0.01,0.02l-0.01,0.03
		l-0.99,1.72L90.18,74.46z"/>
</svg>
